<svg height="47" viewBox="0 0 40 47" width="40" xmlns="http://www.w3.org/2000/svg"><path d="m35.852 10.603a.378.378 0 0 0 .02-.01zm.019-.01c-.158.077-.397.28-.72.606-.354.54-.563.663-.626.366-.237.36-.323.689-.26.986l-.408-.262c-.09-.059-.211-.072-.361-.04-.355.54-1.577 1.42-3.666 2.64a2.005 2.005 0 0 0 -.035.938c-.15.032-.24-.026-.272-.174l-.095-.446c-.268.212-.386.393-.355.541.063.297.02.461-.13.493s-.209.122-.177.27c-.568.276-1.187.68-1.857 1.21l-1.407 1.113c.213.265.544.35.993.254.45-.096.78-.011.994.254 1.49-1.092 2.625-1.644 3.406-1.655-.032-.148-.184-.31-.456-.484-.272-.175-.349-.353-.23-.533l.898-.191c-.236.36-.28.525-.13.493.205-.509.704-.925 1.496-1.249.793-.323 1.307-.665 1.543-1.026-.031-.148-.175-.273-.431-.373s-.4-.225-.432-.374c.118-.18.32-.339.603-.477.284-.138.53-.268.74-.39.208-.122.297-.257.265-.405.15-.032.24.026.272.175.182.116.23.339.142.667.45-.095.808-.249 1.077-.46-.544-.35-.848-.674-.911-.97.3-.064.666-.181 1.1-.35.433-.17.8-.287 1.1-.35.3-.064.508-.186.626-.367.363.233.694.318.994.255-.055.477-.004 1.086.153 1.828.064.297-.141.806-.614 1.527-3.753 2.969-6.075 4.935-6.966 5.9l1.088.7c.544.35 1.057.55 1.538.603.181.117.303.324.366.62.15-.031.361.04.633.215s.558.23.857.167c.071 1.07.37 2.287.893 3.649.525 1.361.79 2.43.799 3.203-.45.096-.643.292-.58.589l-.224.047c-.15.032-.21.122-.178.27-1.025-.402-2.353-1.128-3.985-2.177l.45-.095.496.127c-.394-.381-.741-.54-1.04-.477-.75.16-2.088-.06-4.016-.658-1.927-.599-3.356-.877-4.287-.834-.37 1.94-.272 4.245.296 6.916-.433 1.643-.425 3.89.024 6.742.45 2.851.576 4.918.379 6.2-.93.044-1.908-.136-2.933-.539l-.426-2.003c-.3.064-.463.215-.49.453-.028.239.027.498.165.78.138.28.223.495.254.643-.725-.466-1.309-1.001-1.75-1.605-.442-.604-.773-1.426-.994-2.465-.22-1.038-.364-1.9-.431-2.583-.067-.684-.1-1.763-.101-3.236 0-1.473.012-2.523.035-3.148-.536.424-1.137 1.095-1.803 2.012s-1.133 1.481-1.401 1.693c.031.149.13.244.295.287.166.042.19.153.071.333-.173.658-.591.902-1.253.732a6.7 6.7 0 0 1 -.556.7 5.198 5.198 0 0 1 -.58.588c-.134.106-.366.117-.697.032-.576 2.45-2.125 3.631-4.648 3.547-.213-.265-1.025-1.876-2.436-4.833.173-.657.562-1.592 1.165-2.806s.975-2.224 1.117-3.03c.268-.212.627-.366 1.076-.461.505-.573 1.441-1.508 2.809-2.807s2.363-2.325 2.986-3.078c-.3.064-1.088.038-2.365-.078-1.278-.117-2.216-.111-2.815.016-.363-.233-1.338-.22-2.927.04s-2.52.11-2.797-.452c-.268.212-.605.284-1.011.215s-.684-.087-.834-.055c-1.245-1.442-1.654-3.177-1.224-5.207s1.362-3.353 2.797-3.968c1.293.19 3.615.434 6.965.73 3.351.295 5.839.581 7.463.856.142-.805.134-2.316-.024-4.531-.158-2.216-.166-3.726-.024-4.532l-.816-.524c.292-.838.412-1.561.36-2.17-.05-.61-.254-1.381-.609-2.314-.354-.933-.58-1.622-.674-2.067 1.821-1.007 3.34-.865 4.553.428l1.124-.239c.3-.063.585-.008.857.167s.56.424.864.747c.303.323.546.543.727.66.016 1.547-.014 3.803-.089 6.765-.074 2.963-.072 5.367.007 7.211 5.865-4.814 9.843-7.83 11.932-9.05l.355-.541c.512.201 1.166 1.07 1.963 2.607-.087.329-.385.586-.893.771-.509.186-.854.22-1.035.104l.177-.27c.119-.18.253-.287.403-.318-.182-.117-.422-.143-.722-.08-.3.064-.418.244-.355.541-.15.032-.24-.026-.272-.175-.022-.107.002-.184.074-.23zm-1.5 3.564c-.33-.085-.228-.34.308-.764.094.446-.008.7-.308.764zm.698-2.242c-.032-.149.102-.255.402-.319-.118.18-.252.287-.402.319zm-2.673 2.894c.182.117.184.31.006.58-.177.27-.431.364-.763.279-.063-.297.056-.477.355-.54.3-.064.434-.17.402-.319zm-3.63 1.702c.3-.063.33.085.094.446l-.224.047c.118-.18.161-.344.13-.493zm-.083.716.225-.048.047.223-.225.048z" fill="#f95b5b" fill-rule="evenodd"/></svg>